<svg id="Isolation_Mode" data-name="Isolation Mode" xmlns="http://www.w3.org/2000/svg" viewBox="0 0 210.26 44.92"><defs><style>.cls-1{fill:#fff;}</style></defs><title>logotype_white</title><path class="cls-1" d="M53.56,32h1.85v6.82H53.56V32Zm16.36,0h1.8v6.82h-2L66,34.09h0v4.76h-1.8V32h2.15l3.58,4.76h0V32Zm12.43,1.3H79.82V32h6.92v1.3H84.21v5.52H82.35V33.32ZM94.84,32h6.38v1.3H96.69v1.41H101V36H96.69v1.57h4.56v1.3H94.84V32Zm14.89,0h5c1.89,0,2.21,1.16,2.21,1.85a1.56,1.56,0,0,1-1.11,1.64v0c0.81,0.12.94,1.16,0.94,1.83a2.52,2.52,0,0,0,.35,1.48h-2a2.51,2.51,0,0,1-.18-1.31c0-1-.41-1.19-1-1.19h-2.3v2.5h-1.85V32Zm1.85,3H114a0.83,0.83,0,0,0,.89-0.87,0.85,0.85,0,0,0-1-.85h-2.36V35Zm18.65,2.4H127.1l-0.55,1.41h-2l3-6.82h2.24l3,6.82h-2Zm-1.57-3.95-1.07,2.7h2.14Zm17.86,1.11a1.81,1.81,0,0,0-1.95-1.47,2.05,2.05,0,0,0-2.13,2.3,2.05,2.05,0,0,0,2.13,2.3,1.81,1.81,0,0,0,1.95-1.51h2c-0.23,2-1.86,2.81-4,2.81-2.49,0-4-1.07-4-3.6s1.55-3.6,4-3.6c1.64,0,3.74.42,4,2.77h-2Zm12.24-1.28h-2.53V32h6.92v1.3h-2.53v5.52h-1.85V33.32ZM171.24,32h1.85v6.82h-1.85V32ZM181,32h2l2,5.2,2-5.2h2l-3,6.82h-2Zm15.92,0h6.38v1.3h-4.52v1.41h4.29V36h-4.29v1.57h4.56v1.3h-6.41V32ZM53.41,11.08h6.23v1.67h0.05c1.16-1.34,2.93-2.06,5.79-2.06,4.17,0,8,2.29,8,7.51s-3.83,7.51-8,7.51c-2.62,0-4.48-.64-5.58-2H59.85V30.2H53.41V11.08Zm10,10.32c2.32,0,3.5-1.39,3.5-3.19S65.87,15,63.37,15s-3.53,1.18-3.53,3.19S60.9,21.4,63.4,21.4Zm12.87-6A4.81,4.81,0,0,1,79,11.5c1.57-.72,3.91-1,7.31-1,6.56,0,9.16,1.47,9.16,5.66V23a3.71,3.71,0,0,0,.59,2.19H89.52a5.59,5.59,0,0,1-.23-1.39c-1.44,1.34-3.63,2-7.05,2-4.32,0-7.05-1.16-7.05-4.76,0-2.57,1.83-4.22,6.59-4.43l5.43-.26c1.29-.08,1.72-0.39,1.72-1.16,0-.93-1.16-1.36-3-1.36-1.47,0-2.93.23-3.24,1.6H76.27Zm12.82,3.4c-1.08.23-2.91,0.39-5.2,0.59-1.18.1-1.75,0.49-1.75,1.39s0.8,1.6,2.39,1.6c2.16,0,4.56-.54,4.56-3V18.75Zm9.83-7.67h6.23v2.7h0.05a7.31,7.31,0,0,1,6-3.09,14.56,14.56,0,0,1,2.11.15v5.76a12.72,12.72,0,0,0-3.22-.51c-2.29,0-4.74.75-4.74,3.78v5.28H98.91V11.08Zm16.68,4.27a4.81,4.81,0,0,1,2.78-3.86c1.57-.72,3.91-1,7.31-1,6.56,0,9.16,1.47,9.16,5.66V23a3.7,3.7,0,0,0,.59,2.19h-6.59a5.59,5.59,0,0,1-.23-1.39c-1.44,1.34-3.63,2-7.05,2-4.32,0-7.05-1.16-7.05-4.76,0-2.57,1.83-4.22,6.59-4.43l5.43-.26c1.29-.08,1.72-0.39,1.72-1.16,0-.93-1.16-1.36-3-1.36-1.47,0-2.93.23-3.24,1.6h-6.43Zm12.82,3.4c-1.08.23-2.91,0.39-5.2,0.59-1.18.1-1.75,0.49-1.75,1.39s0.8,1.6,2.39,1.6c2.16,0,4.56-.54,4.56-3V18.75Zm22.9,4.92h-0.05c-1.16,1.34-2.93,2.06-5.79,2.06-4.17,0-8-2.29-8-7.51s3.83-7.51,8-7.51c2.62,0,4.48.64,5.58,2h0.05V6.14h6.43v19h-6.23V23.67ZM147.55,15c-2.32,0-3.5,1.39-3.5,3.19s1,3.19,3.53,3.19,3.53-1.18,3.53-3.19S150,15,147.55,15Zm23.08-4.5c7.26,0,10.42,2.42,10.42,7.59s-3.17,7.62-10.42,7.62-10.42-2.42-10.42-7.62S163.38,10.52,170.63,10.52Zm0,11c2.6,0,3.68-1.18,3.68-3.45s-1.08-3.42-3.68-3.42S167,15.9,167,18.11,168.06,21.56,170.63,21.56Zm11.3,3.6,6.49-7.36-5.94-6.72h7.87l2.55,3.78,2.55-3.78h7.87l-6,6.72,6.59,7.36h-8.18l-2.78-4-2.78,4h-8.18ZM45.49,24c-0.27-1.34,1.12-2.5.46-3.87s-3.84-1.28-3.89-2.84c-0.07-1.81,2.57-.89,3.68-0.85,0-2.9-1.14-5.39-4.27-3.43A1.69,1.69,0,0,1,40,12.44C39,10.73,41.91,10.36,42,9c0-.8-0.94-1.31-1.24-2a3.4,3.4,0,0,1,0-1.45c0-.19-0.23-0.2-0.38-0.24-0.59-.15-1.14.19-1.75,0.06a8.3,8.3,0,0,1-1.64-1,2.2,2.2,0,0,1-.57.77c-0.44.61-2,2.78-3,1.84a1.76,1.76,0,0,1-.24-1.51C33.71,1.68,32.34,1.27,29,.74c-0.8-.13-2.84-0.61-3.77-0.33,0,0.64.81,5.13-.63,4.89-1.71,0-.78-4.45-3.26-5a2.25,2.25,0,0,0-1.22.6c-0.35.51,0.35,2.08,0.5,2.69A4.08,4.08,0,0,1,20.51,6V6.16C17.69,6.16,18-.07,13.6,3c0,1.67,4,3.78,2.61,5.61a1.63,1.63,0,0,1-1,.62c-2.13.26-3-4.34-5.35-3.93A1.32,1.32,0,0,0,9,6C8.39,7.06,11,8.65,11.41,9.73a3.27,3.27,0,0,1-.07,1.7c-2,0-4.36-2.87-6.23-1.05a1.22,1.22,0,0,0-.5,1.12c0.19,0.76,1.55.63,2,1.35l0,0.09c0.71,1.61-.92,2.79-0.94,4.25,0,0.73.55,1.14,0.32,1.93-0.8,2.72-3.38-.31-4.61.85s0.15,3.21.24,4.44a16.26,16.26,0,0,1-.44,2.19,5.51,5.51,0,0,0,.64,1.88c0.24,0.87,0,1.83.47,2.58C3.68,33.2,6,27.36,7.1,29.82c0.85,2-3.45,1.88-3.56,3.39S6,36.06,7,37A5.23,5.23,0,0,1,8.72,40.2,9.86,9.86,0,0,1,8,43.73a3.77,3.77,0,0,0,1.23.06c2.18-.65,3.46-4.13,3.1-6.29C12,35.68,11,34.12,10.87,32.22s1.7-5,0-6.34l-0.23-.14A0.65,0.65,0,0,1,10,26,1.42,1.42,0,0,1,9,25.67a0.85,0.85,0,0,1-.3-1.19c0.42-.62,1.61-0.5,1.75-1.33,0.3-1.84-3.55-2.2-1.22-4.47A2.23,2.23,0,0,1,11,18c1.08,0.08,3.69.86,3.54,2.24-0.07.63-.6,1.22-0.37,1.92s1.3,0.65,1.59,1.33c0.38,0.93-.4,1.62-0.32,2.49a0.54,0.54,0,0,0,.28.43,3,3,0,0,1,1.15.77c0.49,1.08-.82,2.4.92,3,0-.77-0.17-1.8.5-2.2a2.28,2.28,0,0,0,.49.62c0.55,0.86.78,1.67,1.9,2a6.32,6.32,0,0,0-.88-3.06c0.8,0,1.3,1.06,2.21.82s0.09-1.15-.1-1.54c-0.55-1.11.24-2-.09-3S18.51,21.84,17.61,21a1.28,1.28,0,0,1-.47-1.22c0.55-1.7,2.55-.69,4-1.09a3.66,3.66,0,0,0,1.62-1.16,2.87,2.87,0,0,0,.69-2.85,3.09,3.09,0,0,1-.56-1.74c0.42-3.06,5.37-2.89,7.53-1.78,1.1,0.56,2.15,1.86,1.57,3.18-0.52,1.16-1.92.49-2.9,0.92a6.5,6.5,0,0,0-2.3,3c-0.44,1.24.79,2.18,0.87,3.39,0.17,2.64-1.08,5.07-1.6,7.46-0.1.44,0.29,1,.05,1.43-0.38.64-1.17,0.41-1.81,0.64a6.21,6.21,0,0,0-1.15.84c-0.92.57-2,.85-2.11,2.11,0.58,0,1-.31,1.63-0.37a0.11,0.11,0,0,1,.13.12s0,0.08,0,.12c-0.14,1.1-1,2-.49,3.18,0.78,0,1-1.82,2.26-1.34,0.15,0,.13,0,0.17.14a9.2,9.2,0,0,0,.83,2.31A0.51,0.51,0,0,0,26,37.78a7.62,7.62,0,0,1,.11-2.62c0.38-1,1.06-.86.89-2.2a3.91,3.91,0,0,0,.66-0.42c1.59-.55,1.85-1.47,3.86-1.41a3.34,3.34,0,0,1,1.38.24c0.35,0,.22-0.55.09-1-0.71-2.34-1.6-4.65-1.6-7.35h0.38a15.62,15.62,0,0,0,1.42,2.3c0.3,0.48,1.27,2.7,2.13,2.22,0.4-.24.64-3,0.87-3.65,0.85-2.29,3.25-2.79,4.67-.58s0.51,6.52-1.2,8.14c-0.67.63-1.63,0.63-2.27,1.22s-0.07,1.77-.18,2.58a3.69,3.69,0,0,1-1.15,2C34.86,38.46,33.23,39,32,40.11c-0.53.47-.65,1.25-1.3,1.54s-1.43-.08-2.1.12l-1.47.92c-0.9.47-2.36,1.26-2.84,1.41,0,1.92,4.59.9,5.53,0.39,0.67-.36.87-1.24,1.53-1.53s1.33,0.41,2.09.15a10.17,10.17,0,0,0,2-1.24A39.07,39.07,0,0,0,39,39.4a4,4,0,0,0,1.14-1.24c0.29-.81-1-2.81,1.28-2.48,1.76,0.23,3.52-3.31,3.85-4.56,0.2-1,.39-1.94.58-2.92l0.73-1.76C47,25,45.7,25,45.49,24ZM5.57,27.71A1.69,1.69,0,0,1,3.8,25.24a2.61,2.61,0,0,1,1.14-1,2.44,2.44,0,0,1,1.44.44A1.7,1.7,0,0,1,5.57,27.71ZM15,17.42a0.81,0.81,0,0,1-.51-0.11c-1.79-.76-1.05-1.92-0.37-3.19C15.48,14.67,15.79,17,15,17.42Zm2.51,5.26a3.46,3.46,0,0,1,2.17,2.93,1,1,0,0,1-.16.42,1.38,1.38,0,0,1-.89,0C17.29,25.46,17.49,24,17.49,22.68Zm13.2,5.86A2,2,0,0,1,30,29.78a1.43,1.43,0,0,1-1.43-.88,4.36,4.36,0,0,1,0-1.69,22.08,22.08,0,0,1,.9-5.62c0.62,1.36.4,3,.7,4.51A7.68,7.68,0,0,1,30.7,28.54Zm9-8.06a12.64,12.64,0,0,1-2.5-.07c-3.14-.62-0.43-4.15.24-5.56C38.73,16,40.15,18.64,39.71,20.48ZM209.07,31.2a2.13,2.13,0,1,1-2.13,2.13A2.13,2.13,0,0,1,209.07,31.2Zm1.61,2.13A1.61,1.61,0,1,0,209.07,35,1.64,1.64,0,0,0,210.68,33.32Zm-1.73.19h-0.35v1h-0.42V32.13h0.93c0.59,0,.89.2,0.89,0.69a0.65,0.65,0,0,1-.61.67l0.65,1h-0.48Zm0.07-.35c0.3,0,.57,0,0.57-0.37s-0.3-.33-0.54-0.33h-0.47v0.69H209Z" transform="translate(-0.94 -0.29)"/></svg>